<svg width="95" height="65" viewBox="0 0 95 65" fill="none" xmlns="http://www.w3.org/2000/svg">
<path d="M5.625 63.3281C6.91406 63.3281 7.73438 62.4844 7.73438 61.1484V50.9297H15.5391C21.8906 50.9297 26.4141 46.4531 26.4141 40.0312C26.4141 33.6328 21.9375 29.1797 15.5859 29.1797H5.625C4.33594 29.1797 3.51562 30.0234 3.51562 31.3594V61.1484C3.51562 62.4844 4.33594 63.3281 5.625 63.3281ZM7.73438 47.1797V32.9297H14.4844C19.3359 32.9297 22.0781 35.5547 22.0781 40.0312C22.0781 44.5312 19.3125 47.1797 14.4844 47.1797H7.73438ZM33.375 63.4219C34.6406 63.4219 35.4844 62.5547 35.4844 61.2422V49.6172H43.5703L50.3438 62.0625C50.8828 63.0703 51.4453 63.4219 52.4062 63.4219C53.625 63.4219 54.5625 62.5781 54.5625 61.4766C54.5625 61.0078 54.4453 60.5859 54.1172 60L47.9297 48.9609C52.1719 47.625 54.7266 43.9688 54.7266 39.2578C54.7266 33.1641 50.4609 29.1797 43.9453 29.1797H33.375C32.0859 29.1797 31.2656 30.0234 31.2656 31.3594V61.2422C31.2656 62.5547 32.1094 63.4219 33.375 63.4219ZM35.4844 45.8906V32.9297H43.3828C47.7422 32.9297 50.3672 35.3438 50.3672 39.3984C50.3672 43.5469 47.9062 45.8906 43.5703 45.8906H35.4844Z" fill="white"/>
<path d="M70.322 44.3L78.9073 29.432C76.2525 28.8391 73.4978 28.8567 70.8509 29.4834C68.2039 30.1101 65.7338 31.3297 63.6267 33.05L70.2141 44.48L70.322 44.3ZM92.1721 41.6C90.5162 36.344 86.5026 32.132 81.373 30.188L74.7856 41.6H92.1721ZM92.64 43.4H79.1592L79.6812 44.3L88.2484 59.15C91.3095 55.8453 93.007 51.5047 93 47C93 45.758 92.874 44.57 92.64 43.4ZM68.7742 47L61.7548 34.85C59.8263 36.9388 58.4223 39.4565 57.6587 42.195C56.8951 44.9336 56.7938 47.8146 57.3632 50.6H70.844L68.7742 47ZM57.8312 52.4C59.487 57.656 63.5007 61.868 68.6302 63.812L75.2176 52.4H57.8312ZM78.1153 52.4L71.096 64.568C73.7507 65.1609 76.5054 65.1433 79.1524 64.5166C81.7993 63.8899 84.2695 62.6703 86.3766 60.95L79.7892 49.52L78.1153 52.4Z" fill="url(#paint0_linear)"/>
<path d="M8.98633 24.2344C12.1406 24.2344 14.1914 22.6035 14.1914 19.9961C14.1914 18.0039 13.0293 16.832 10.0898 16.1875L8.52734 15.8457C6.60352 15.4258 5.85156 14.6641 5.85156 13.5508C5.85156 12.1152 7.20898 11.2559 8.9668 11.2559C10.4902 11.2559 11.6523 11.8809 12.1406 13.3066C12.2969 13.7559 12.5703 13.9902 13.0195 13.9902C13.4883 13.9902 13.8203 13.6777 13.8203 13.1992C13.8203 13.0137 13.8008 12.8672 13.7715 12.7598C13.2637 10.8555 11.3691 9.67383 9.01562 9.67383C6.0957 9.67383 4.04492 11.3047 4.04492 13.6289C4.04492 15.6309 5.26562 16.9102 8.08789 17.5254L9.65039 17.8672C11.6035 18.2969 12.3848 19.0781 12.3848 20.2598C12.3848 21.6465 10.998 22.6523 9.08398 22.6523C7.30664 22.6523 5.91992 21.9688 5.49023 20.5137C5.35352 20.0449 5.08008 19.8203 4.64062 19.8203C4.14258 19.8203 3.83008 20.1719 3.83008 20.7285C3.83008 20.9336 3.86914 21.1484 3.92773 21.3438C4.45508 23.043 6.33984 24.2344 8.98633 24.2344ZM17.4211 24.1367C17.9582 24.1367 18.3 23.7852 18.3 23.2285V17.584H26.0344V23.2285C26.0344 23.7852 26.3762 24.1367 26.9133 24.1367C27.4504 24.1367 27.7922 23.7852 27.7922 23.2285V10.6797C27.7922 10.123 27.4504 9.77148 26.9133 9.77148C26.3762 9.77148 26.0344 10.123 26.0344 10.6797V16.002H18.3V10.6797C18.3 10.123 17.9582 9.77148 17.4211 9.77148C16.884 9.77148 16.5422 10.123 16.5422 10.6797V23.2285C16.5422 23.7852 16.884 24.1367 17.4211 24.1367ZM36.7738 24.2344C40.768 24.2344 43.268 21.4316 43.268 16.959C43.268 12.4863 40.768 9.67383 36.7738 9.67383C32.7797 9.67383 30.2797 12.4863 30.2797 16.959C30.2797 21.4316 32.7797 24.2344 36.7738 24.2344ZM36.7738 22.6133C33.893 22.6133 32.0863 20.4258 32.0863 16.959C32.0863 13.4824 33.893 11.2949 36.7738 11.2949C39.6547 11.2949 41.4613 13.4824 41.4613 16.959C41.4613 20.4258 39.6547 22.6133 36.7738 22.6133ZM49.3199 24.1367C49.857 24.1367 50.1988 23.7852 50.1988 23.2285V11.4902H53.9488C54.4469 11.4902 54.7887 11.168 54.7887 10.6992C54.7887 10.2305 54.4469 9.9082 53.9488 9.9082H44.691C44.193 9.9082 43.8512 10.2305 43.8512 10.6992C43.8512 11.168 44.193 11.4902 44.691 11.4902H48.441V23.2285C48.441 23.7852 48.7828 24.1367 49.3199 24.1367ZM57.6766 24H64.659C65.157 24 65.4988 23.6777 65.4988 23.209C65.4988 22.7402 65.157 22.418 64.659 22.418H58.5555V10.6797C58.5555 10.123 58.2137 9.77148 57.6766 9.77148C57.1395 9.77148 56.7977 10.123 56.7977 10.6797V23.0918C56.7977 23.6484 57.1395 24 57.6766 24ZM68.4648 24.1367C69.002 24.1367 69.3438 23.7852 69.3438 23.2285V10.6797C69.3438 10.123 69.002 9.77148 68.4648 9.77148C67.9277 9.77148 67.5859 10.123 67.5859 10.6797V23.2285C67.5859 23.7852 67.9277 24.1367 68.4648 24.1367ZM76.9973 24.2344C80.1516 24.2344 82.2023 22.6035 82.2023 19.9961C82.2023 18.0039 81.0402 16.832 78.1008 16.1875L76.5383 15.8457C74.6145 15.4258 73.8625 14.6641 73.8625 13.5508C73.8625 12.1152 75.2199 11.2559 76.9777 11.2559C78.5012 11.2559 79.6633 11.8809 80.1516 13.3066C80.3078 13.7559 80.5813 13.9902 81.0305 13.9902C81.4992 13.9902 81.8313 13.6777 81.8313 13.1992C81.8313 13.0137 81.8117 12.8672 81.7824 12.7598C81.2746 10.8555 79.3801 9.67383 77.0266 9.67383C74.1066 9.67383 72.0559 11.3047 72.0559 13.6289C72.0559 15.6309 73.2766 16.9102 76.0988 17.5254L77.6613 17.8672C79.6145 18.2969 80.3957 19.0781 80.3957 20.2598C80.3957 21.6465 79.009 22.6523 77.0949 22.6523C75.3176 22.6523 73.9309 21.9688 73.5012 20.5137C73.3645 20.0449 73.091 19.8203 72.6516 19.8203C72.1535 19.8203 71.841 20.1719 71.841 20.7285C71.841 20.9336 71.8801 21.1484 71.9387 21.3438C72.466 23.043 74.3508 24.2344 76.9973 24.2344ZM88.9965 24.1367C89.5336 24.1367 89.8754 23.7852 89.8754 23.2285V11.4902H93.6254C94.1234 11.4902 94.4652 11.168 94.4652 10.6992C94.4652 10.2305 94.1234 9.9082 93.6254 9.9082H84.3676C83.8695 9.9082 83.5277 10.2305 83.5277 10.6992C83.5277 11.168 83.8695 11.4902 84.3676 11.4902H88.1176V23.2285C88.1176 23.7852 88.4594 24.1367 88.9965 24.1367Z" fill="white"/>
<defs>
<linearGradient id="paint0_linear" x1="75" y1="29" x2="75" y2="65" gradientUnits="userSpaceOnUse">
<stop stop-color="#B78628"/>
<stop offset="1" stop-color="#FCC201"/>
</linearGradient>
</defs>
</svg>
